<svg width="1090" height="157" viewBox="0 0 1090 157" fill="none" xmlns="http://www.w3.org/2000/svg">
<path d="M343.353 138.082C342.553 138.082 341.873 137.842 341.313 137.362C340.833 136.802 340.593 136.122 340.593 135.322V56.962C340.593 56.082 340.833 55.402 341.313 54.922C341.873 54.362 342.553 54.082 343.353 54.082H372.633C381.833 54.082 389.033 56.242 394.233 60.562C399.433 64.882 402.033 71.122 402.033 79.282C402.033 85.362 400.513 90.362 397.473 94.282C394.513 98.202 390.313 100.922 384.873 102.442L403.353 134.362C403.593 134.842 403.713 135.282 403.713 135.682C403.713 136.322 403.433 136.882 402.873 137.362C402.393 137.842 401.833 138.082 401.193 138.082H395.433C394.233 138.082 393.273 137.802 392.553 137.242C391.913 136.682 391.313 135.882 390.753 134.842L373.353 104.362H352.353V135.322C352.353 136.122 352.073 136.802 351.513 137.362C350.953 137.842 350.273 138.082 349.473 138.082H343.353ZM372.153 94.162C384.073 94.162 390.033 89.162 390.033 79.162C390.033 69.162 384.073 64.162 372.153 64.162H352.353V94.162H372.153ZM441.923 139.282C433.683 139.282 427.083 136.762 422.123 131.722C417.243 126.602 414.563 119.642 414.083 110.842L413.963 106.762L414.083 102.802C414.643 94.162 417.363 87.282 422.243 82.162C427.203 77.042 433.723 74.482 441.803 74.482C450.683 74.482 457.563 77.322 462.443 83.002C467.323 88.602 469.763 96.202 469.763 105.802V107.842C469.763 108.642 469.483 109.322 468.923 109.882C468.443 110.362 467.803 110.602 467.003 110.602H425.483V111.682C425.723 116.882 427.283 121.322 430.163 125.002C433.123 128.602 437.003 130.402 441.803 130.402C445.483 130.402 448.483 129.682 450.803 128.242C453.203 126.722 454.963 125.162 456.083 123.562C456.803 122.602 457.323 122.042 457.643 121.882C458.043 121.642 458.723 121.522 459.683 121.522H465.563C466.283 121.522 466.883 121.722 467.363 122.122C467.843 122.522 468.083 123.082 468.083 123.802C468.083 125.562 466.963 127.682 464.723 130.162C462.563 132.642 459.483 134.802 455.483 136.642C451.563 138.402 447.043 139.282 441.923 139.282ZM458.363 102.322V101.962C458.363 96.442 456.843 91.962 453.803 88.522C450.843 85.002 446.843 83.242 441.803 83.242C436.763 83.242 432.763 85.002 429.803 88.522C426.923 91.962 425.483 96.442 425.483 101.962V102.322H458.363ZM486.871 138.082C486.071 138.082 485.391 137.842 484.831 137.362C484.351 136.802 484.111 136.122 484.111 135.322V78.442C484.111 77.642 484.351 77.002 484.831 76.522C485.391 75.962 486.071 75.682 486.871 75.682H492.271C493.071 75.682 493.711 75.962 494.191 76.522C494.751 77.002 495.031 77.642 495.031 78.442V82.642C499.191 77.202 504.991 74.482 512.431 74.482C521.311 74.482 527.591 78.162 531.271 85.522C533.191 82.162 535.911 79.482 539.431 77.482C542.951 75.482 546.911 74.482 551.311 74.482C557.871 74.482 563.231 76.722 567.391 81.202C571.551 85.682 573.631 92.162 573.631 100.642V135.322C573.631 136.122 573.351 136.802 572.791 137.362C572.311 137.842 571.671 138.082 570.871 138.082H565.231C564.431 138.082 563.751 137.842 563.191 137.362C562.711 136.802 562.471 136.122 562.471 135.322V101.722C562.471 95.482 561.151 91.002 558.511 88.282C555.951 85.562 552.551 84.202 548.311 84.202C544.551 84.202 541.311 85.602 538.591 88.402C535.871 91.122 534.511 95.562 534.511 101.722V135.322C534.511 136.122 534.231 136.802 533.671 137.362C533.191 137.842 532.551 138.082 531.751 138.082H526.111C525.311 138.082 524.631 137.842 524.071 137.362C523.591 136.802 523.351 136.122 523.351 135.322V101.722C523.351 95.482 521.991 91.002 519.271 88.282C516.631 85.562 513.271 84.202 509.191 84.202C505.431 84.202 502.191 85.602 499.471 88.402C496.751 91.122 495.391 95.522 495.391 101.602V135.322C495.391 136.122 495.111 136.802 494.551 137.362C494.071 137.842 493.431 138.082 492.631 138.082H486.871ZM616.312 139.282C607.512 139.282 600.672 136.802 595.792 131.842C590.992 126.882 588.432 120.282 588.112 112.042L587.992 106.882L588.112 101.722C588.432 93.562 591.032 87.002 595.912 82.042C600.792 77.002 607.592 74.482 616.312 74.482C625.032 74.482 631.832 77.002 636.712 82.042C641.592 87.002 644.192 93.562 644.512 101.722C644.592 102.602 644.632 104.322 644.632 106.882C644.632 109.442 644.592 111.162 644.512 112.042C644.192 120.282 641.592 126.882 636.712 131.842C631.912 136.802 625.112 139.282 616.312 139.282ZM616.312 130.042C621.352 130.042 625.312 128.442 628.192 125.242C631.152 122.042 632.752 117.442 632.992 111.442C633.072 110.642 633.112 109.122 633.112 106.882C633.112 104.642 633.072 103.122 632.992 102.322C632.752 96.322 631.152 91.722 628.192 88.522C625.312 85.322 621.352 83.722 616.312 83.722C611.272 83.722 607.272 85.322 604.312 88.522C601.352 91.722 599.792 96.322 599.632 102.322L599.512 106.882L599.632 111.442C599.792 117.442 601.352 122.042 604.312 125.242C607.272 128.442 611.272 130.042 616.312 130.042ZM683.432 138.082C670.792 138.082 664.472 131.042 664.472 116.962V85.282H655.112C654.312 85.282 653.632 85.042 653.072 84.562C652.592 84.002 652.352 83.322 652.352 82.522V78.442C652.352 77.642 652.592 77.002 653.072 76.522C653.632 75.962 654.312 75.682 655.112 75.682H664.472V55.642C664.472 54.842 664.712 54.202 665.192 53.722C665.752 53.162 666.432 52.882 667.232 52.882H672.872C673.672 52.882 674.312 53.162 674.792 53.722C675.352 54.202 675.632 54.842 675.632 55.642V75.682H690.512C691.312 75.682 691.952 75.962 692.432 76.522C692.992 77.002 693.272 77.642 693.272 78.442V82.522C693.272 83.322 692.992 84.002 692.432 84.562C691.952 85.042 691.312 85.282 690.512 85.282H675.632V116.122C675.632 120.122 676.312 123.162 677.672 125.242C679.032 127.242 681.272 128.242 684.392 128.242H691.712C692.512 128.242 693.152 128.522 693.632 129.082C694.192 129.562 694.472 130.202 694.472 131.002V135.322C694.472 136.122 694.192 136.802 693.632 137.362C693.152 137.842 692.512 138.082 691.712 138.082H683.432ZM730.907 139.282C722.667 139.282 716.067 136.762 711.107 131.722C706.227 126.602 703.547 119.642 703.067 110.842L702.947 106.762L703.067 102.802C703.627 94.162 706.347 87.282 711.227 82.162C716.187 77.042 722.707 74.482 730.787 74.482C739.667 74.482 746.547 77.322 751.427 83.002C756.307 88.602 758.747 96.202 758.747 105.802V107.842C758.747 108.642 758.467 109.322 757.907 109.882C757.427 110.362 756.787 110.602 755.987 110.602H714.467V111.682C714.707 116.882 716.267 121.322 719.147 125.002C722.107 128.602 725.987 130.402 730.787 130.402C734.467 130.402 737.467 129.682 739.787 128.242C742.187 126.722 743.947 125.162 745.067 123.562C745.787 122.602 746.307 122.042 746.627 121.882C747.027 121.642 747.707 121.522 748.667 121.522H754.547C755.267 121.522 755.867 121.722 756.347 122.122C756.827 122.522 757.067 123.082 757.067 123.802C757.067 125.562 755.947 127.682 753.707 130.162C751.547 132.642 748.467 134.802 744.467 136.642C740.547 138.402 736.027 139.282 730.907 139.282ZM747.347 102.322V101.962C747.347 96.442 745.827 91.962 742.787 88.522C739.827 85.002 735.827 83.242 730.787 83.242C725.747 83.242 721.747 85.002 718.787 88.522C715.907 91.962 714.467 96.442 714.467 101.962V102.322H747.347ZM803.936 139.282C796.336 139.282 789.816 138.162 784.376 135.922C778.936 133.682 774.816 130.762 772.016 127.162C769.296 123.482 767.856 119.482 767.696 115.162C767.696 114.522 767.936 113.962 768.416 113.482C768.976 112.922 769.616 112.642 770.336 112.642H785.456C786.416 112.642 787.176 112.842 787.736 113.242C788.376 113.562 789.016 114.082 789.656 114.802C790.696 116.882 792.376 118.602 794.696 119.962C797.016 121.322 800.096 122.002 803.936 122.002C808.496 122.002 811.976 121.282 814.376 119.842C816.776 118.402 817.976 116.442 817.976 113.962C817.976 112.202 817.336 110.762 816.056 109.642C814.856 108.522 812.936 107.522 810.296 106.642C807.656 105.762 803.736 104.762 798.536 103.642C788.936 101.642 781.736 98.722 776.936 94.882C772.216 90.962 769.856 85.402 769.856 78.202C769.856 73.322 771.216 68.962 773.936 65.122C776.656 61.282 780.536 58.282 785.576 56.122C790.616 53.962 796.496 52.882 803.216 52.882C810.176 52.882 816.216 54.082 821.336 56.482C826.456 58.882 830.336 61.922 832.976 65.602C835.696 69.202 837.136 72.762 837.296 76.282C837.296 77.002 837.056 77.602 836.576 78.082C836.096 78.562 835.496 78.802 834.776 78.802H818.936C817.976 78.802 817.176 78.642 816.536 78.322C815.976 78.002 815.456 77.482 814.976 76.762C814.496 74.922 813.176 73.362 811.016 72.082C808.936 70.802 806.336 70.162 803.216 70.162C799.616 70.162 796.856 70.802 794.936 72.082C793.016 73.362 792.056 75.242 792.056 77.722C792.056 79.402 792.576 80.802 793.616 81.922C794.736 83.042 796.496 84.082 798.896 85.042C801.376 85.922 804.896 86.842 809.456 87.802C816.896 89.162 822.816 90.882 827.216 92.962C831.696 94.962 834.976 97.602 837.056 100.882C839.136 104.082 840.176 108.122 840.176 113.002C840.176 118.362 838.616 123.042 835.496 127.042C832.456 130.962 828.176 134.002 822.656 136.162C817.216 138.242 810.976 139.282 803.936 139.282ZM883.506 139.282C875.906 139.282 869.386 138.162 863.946 135.922C858.506 133.682 854.386 130.762 851.586 127.162C848.866 123.482 847.426 119.482 847.266 115.162C847.266 114.522 847.506 113.962 847.986 113.482C848.546 112.922 849.186 112.642 849.906 112.642H865.026C865.986 112.642 866.746 112.842 867.306 113.242C867.946 113.562 868.586 114.082 869.226 114.802C870.266 116.882 871.946 118.602 874.266 119.962C876.586 121.322 879.666 122.002 883.506 122.002C888.066 122.002 891.546 121.282 893.946 119.842C896.346 118.402 897.546 116.442 897.546 113.962C897.546 112.202 896.906 110.762 895.626 109.642C894.426 108.522 892.506 107.522 889.866 106.642C887.226 105.762 883.306 104.762 878.106 103.642C868.506 101.642 861.306 98.722 856.506 94.882C851.786 90.962 849.426 85.402 849.426 78.202C849.426 73.322 850.786 68.962 853.506 65.122C856.226 61.282 860.106 58.282 865.146 56.122C870.186 53.962 876.066 52.882 882.786 52.882C889.746 52.882 895.786 54.082 900.906 56.482C906.026 58.882 909.906 61.922 912.546 65.602C915.266 69.202 916.706 72.762 916.866 76.282C916.866 77.002 916.626 77.602 916.146 78.082C915.666 78.562 915.066 78.802 914.346 78.802H898.506C897.546 78.802 896.746 78.642 896.106 78.322C895.546 78.002 895.026 77.482 894.546 76.762C894.066 74.922 892.746 73.362 890.586 72.082C888.506 70.802 885.906 70.162 882.786 70.162C879.186 70.162 876.426 70.802 874.506 72.082C872.586 73.362 871.626 75.242 871.626 77.722C871.626 79.402 872.146 80.802 873.186 81.922C874.306 83.042 876.066 84.082 878.466 85.042C880.946 85.922 884.466 86.842 889.026 87.802C896.466 89.162 902.386 90.882 906.786 92.962C911.266 94.962 914.546 97.602 916.626 100.882C918.706 104.082 919.746 108.122 919.746 113.002C919.746 118.362 918.186 123.042 915.066 127.042C912.026 130.962 907.746 134.002 902.226 136.162C896.786 138.242 890.546 139.282 883.506 139.282ZM934.756 138.082C933.876 138.082 933.156 137.802 932.596 137.242C932.036 136.682 931.756 135.962 931.756 135.082V57.082C931.756 56.202 932.036 55.482 932.596 54.922C933.236 54.362 933.956 54.082 934.756 54.082H950.236C951.116 54.082 951.836 54.362 952.396 54.922C953.036 55.482 953.356 56.202 953.356 57.082V86.002H982.876V57.082C982.876 56.202 983.156 55.482 983.716 54.922C984.276 54.362 984.996 54.082 985.876 54.082H1001.36C1002.24 54.082 1002.96 54.362 1003.52 54.922C1004.08 55.482 1004.36 56.202 1004.36 57.082V135.082C1004.36 135.962 1004.08 136.682 1003.52 137.242C1002.96 137.802 1002.24 138.082 1001.36 138.082H985.876C984.996 138.082 984.276 137.802 983.716 137.242C983.156 136.682 982.876 135.962 982.876 135.082V105.202H953.356V135.082C953.356 135.962 953.036 136.682 952.396 137.242C951.836 137.802 951.116 138.082 950.236 138.082H934.756Z" fill="black"/>
<g filter="url(#filter0_i)">
<path fill-rule="evenodd" clip-rule="evenodd" d="M10 0C4.47715 0 0 4.47715 0 10V146.495C0 152.017 4.47716 156.495 10 156.495H202.46C207.982 156.495 212.46 152.017 212.46 146.495V112.782L284.608 140.736C291.161 143.276 298.221 138.44 298.221 131.412V25.0818C298.221 18.0534 291.161 13.2179 284.608 15.7572L212.46 43.7122V10C212.46 4.47715 207.982 0 202.46 0H10Z" fill="#5A38FD"/>
</g>
<mask id="mask0" mask-type="alpha" maskUnits="userSpaceOnUse" x="0" y="0" width="299" height="157">
<path fill-rule="evenodd" clip-rule="evenodd" d="M10 0C4.47715 0 0 4.47715 0 9.99999V146.495C0 152.017 4.47716 156.495 10 156.495H202.46C207.982 156.495 212.46 152.017 212.46 146.495V112.782L284.608 140.736C291.161 143.276 298.221 138.44 298.221 131.412V25.0818C298.221 18.0534 291.161 13.2179 284.608 15.7572L212.46 43.7122V10C212.46 4.47715 207.982 0 202.46 0H10Z" fill="#5A38FD"/>
</mask>
<g mask="url(#mask0)">
<g filter="url(#filter1_i)">
<path d="M91.4511 8.05418C89.7055 8.05418 88.3963 9.36338 88.3963 11.109L88.2872 70.1322C87.6326 70.5686 86.6507 70.8959 85.4506 71.4414C84.4687 71.7687 83.2686 72.096 82.0685 72.2051V10.8908C82.0685 9.14519 80.7593 7.83598 79.0136 7.83599C77.268 7.83599 75.9588 9.14519 75.9589 10.8908L75.8497 72.9688C74.8678 73.0779 73.7768 73.0779 72.6858 73.0779C71.5948 73.0779 70.5038 73.0779 69.5219 72.9688L69.5219 10.9999C69.5219 9.25428 68.2127 7.94508 66.4671 7.94508C64.7215 7.94508 63.4123 9.25428 63.4123 10.9999L63.5214 72.2051C60.7939 71.6596 58.5028 70.8959 57.3027 70.1322L57.3027 10.9999C57.3027 9.25428 55.9935 7.94508 54.2479 7.94508C52.5023 7.94508 51.1931 9.25429 51.1931 10.9999L51.084 71.7687C51.084 77.6601 53.3751 83.006 57.4118 87.0427C59.1574 88.7883 61.1212 90.0975 63.1941 91.0794L60.903 250.475C60.903 257.021 66.2489 262.585 72.904 262.476C76.0679 262.585 79.0136 261.167 81.1956 258.985C83.3776 256.803 84.6868 253.748 84.7959 250.366L80.432 91.9522C83.2686 90.8612 85.9961 89.2247 88.1781 87.0427C92.1057 83.1151 94.5059 77.6601 94.5059 71.7687L94.5059 11.109C94.5059 9.36338 93.1967 8.05418 91.4511 8.05418Z" fill="white"/>
</g>
<g filter="url(#filter2_i)">
<path d="M120.689 34.4901C119.655 33.8668 118.365 33.8484 117.314 34.4425C116.263 35.0362 115.612 36.1503 115.612 37.3578L115.612 127.699L150.454 127.699L150.454 87.185C150.454 76.6025 147.703 66.1387 142.498 56.9248C137.294 47.7107 129.752 39.9529 120.689 34.4901Z" fill="white"/>
</g>
<g filter="url(#filter3_i)">
<path d="M115.612 134.396L115.612 171.048C115.612 176.774 120.271 181.433 125.997 181.433C128.86 181.433 131.456 180.268 133.337 178.388C135.217 176.508 136.382 173.911 136.382 171.049L136.382 134.396L115.612 134.396Z" fill="white"/>
</g>
</g>
<defs>
<filter id="filter0_i" x="0" y="0" width="298.221" height="166.495" filterUnits="userSpaceOnUse" color-interpolation-filters="sRGB">
<feFlood flood-opacity="0" result="BackgroundImageFix"/>
<feBlend mode="normal" in="SourceGraphic" in2="BackgroundImageFix" result="shape"/>
<feColorMatrix in="SourceAlpha" type="matrix" values="0 0 0 0 0 0 0 0 0 0 0 0 0 0 0 0 0 0 127 0" result="hardAlpha"/>
<feOffset dy="10"/>
<feGaussianBlur stdDeviation="5"/>
<feComposite in2="hardAlpha" operator="arithmetic" k2="-1" k3="1"/>
<feColorMatrix type="matrix" values="0 0 0 0 0 0 0 0 0 0 0 0 0 0 0 0 0 0 0.25 0"/>
<feBlend mode="normal" in2="shape" result="effect1_innerShadow"/>
</filter>
<filter id="filter1_i" x="-66.8398" y="-11.9111" width="279.283" height="283.283" filterUnits="userSpaceOnUse" color-interpolation-filters="sRGB">
<feFlood flood-opacity="0" result="BackgroundImageFix"/>
<feBlend mode="normal" in="SourceGraphic" in2="BackgroundImageFix" result="shape"/>
<feColorMatrix in="SourceAlpha" type="matrix" values="0 0 0 0 0 0 0 0 0 0 0 0 0 0 0 0 0 0 127 0" result="hardAlpha"/>
<feOffset dy="4"/>
<feGaussianBlur stdDeviation="2"/>
<feComposite in2="hardAlpha" operator="arithmetic" k2="-1" k3="1"/>
<feColorMatrix type="matrix" values="0 0 0 0 0 0 0 0 0 0 0 0 0 0 0 0 0 0 0.25 0"/>
<feBlend mode="normal" in2="shape" result="effect1_innerShadow"/>
</filter>
<filter id="filter2_i" x="69.748" y="31.417" width="113.703" height="117.703" filterUnits="userSpaceOnUse" color-interpolation-filters="sRGB">
<feFlood flood-opacity="0" result="BackgroundImageFix"/>
<feBlend mode="normal" in="SourceGraphic" in2="BackgroundImageFix" result="shape"/>
<feColorMatrix in="SourceAlpha" type="matrix" values="0 0 0 0 0 0 0 0 0 0 0 0 0 0 0 0 0 0 127 0" result="hardAlpha"/>
<feOffset dy="4"/>
<feGaussianBlur stdDeviation="2"/>
<feComposite in2="hardAlpha" operator="arithmetic" k2="-1" k3="1"/>
<feColorMatrix type="matrix" values="0 0 0 0 0 0 0 0 0 0 0 0 0 0 0 0 0 0 0.25 0"/>
<feBlend mode="normal" in2="shape" result="effect1_innerShadow"/>
</filter>
<filter id="filter3_i" x="95.1387" y="124.011" width="61.7167" height="65.7167" filterUnits="userSpaceOnUse" color-interpolation-filters="sRGB">
<feFlood flood-opacity="0" result="BackgroundImageFix"/>
<feBlend mode="normal" in="SourceGraphic" in2="BackgroundImageFix" result="shape"/>
<feColorMatrix in="SourceAlpha" type="matrix" values="0 0 0 0 0 0 0 0 0 0 0 0 0 0 0 0 0 0 127 0" result="hardAlpha"/>
<feOffset dy="4"/>
<feGaussianBlur stdDeviation="2"/>
<feComposite in2="hardAlpha" operator="arithmetic" k2="-1" k3="1"/>
<feColorMatrix type="matrix" values="0 0 0 0 0 0 0 0 0 0 0 0 0 0 0 0 0 0 0.25 0"/>
<feBlend mode="normal" in2="shape" result="effect1_innerShadow"/>
</filter>
</defs>
</svg>
