<svg width="171" height="171" viewBox="0 0 171 171" fill="none" xmlns="http://www.w3.org/2000/svg">
<path d="M60.5623 0H24.9375C19.045 0 14.25 4.79501 14.25 10.6875V160.312C14.25 166.205 19.045 171 24.9375 171H60.5626C66.4551 171 71.2501 166.205 71.2501 160.312V10.6875C71.2498 4.79501 66.4548 0 60.5623 0Z" fill="#5452F6"/>
<path d="M146.062 0H110.438C104.545 0 99.75 4.79501 99.75 10.6875V160.312C99.75 166.205 104.545 171 110.438 171H146.063C151.955 171 156.75 166.205 156.75 160.312V10.6875C156.75 4.79501 151.955 0 146.062 0Z" fill="#5452F6"/>
</svg>
