<svg width="46" height="32" viewBox="0 0 46 32" fill="none" xmlns="http://www.w3.org/2000/svg">
<path d="M45.9848 7.93796C45.9715 7.6989 45.8729 7.47249 45.7068 7.29999V7.29503L38.7068 0.29503C38.519 0.106031 38.2634 -0.000187251 37.9969 2.47812e-07H7.87993C7.61162 0.000281496 7.35474 0.108375 7.16696 0.299999L0.283967 7.29999C0.205968 7.38259 0.142687 7.47793 0.096937 7.58199C0.0829683 7.61199 0.0759371 7.64302 0.0649684 7.67396C0.0352498 7.75946 0.0174374 7.84862 0.0119999 7.93899C0.0119999 7.95999 0 7.97799 0 8.00002V11C0 11.014 0.00703121 11.026 0.00796871 11.039C0.0102187 11.1576 0.0339373 11.2749 0.0779996 11.385C0.0779996 11.3921 0.0859683 11.3981 0.0889683 11.405C0.134437 11.5049 0.196312 11.5965 0.271967 11.676C0.29578 11.6997 0.320811 11.7221 0.346967 11.7431C0.410529 11.7992 0.481123 11.847 0.556966 11.8851C0.587435 11.9015 0.618841 11.9161 0.650997 11.9291C0.761152 11.9733 0.878339 11.9974 0.997026 12H3.99701V31C3.99701 31.5522 4.44476 32 4.99704 32H5.99706C6.54934 32 6.99709 31.5522 6.99709 31V11.9999H9.99708V22.9999C9.99708 23.5521 10.4448 23.9999 10.9971 23.9999H11.9971C12.5494 23.9999 12.9972 23.5521 12.9972 22.9999V11.9999H32.997V17.9999V22.9999C32.997 23.5521 33.4448 23.9999 33.997 23.9999H34.9971C35.5494 23.9999 35.9971 23.5521 35.9971 22.9999V11.9999H38.9971V25.9998V30.9998C38.9971 31.5521 39.4448 31.9998 39.9971 31.9998H40.9971C41.5494 31.9998 41.9972 31.5521 41.9972 30.9998V11.9999H44.9971C45.1169 11.9976 45.2351 11.9736 45.3462 11.929C45.3786 11.9158 45.4104 11.9008 45.4411 11.884C45.5165 11.8461 45.5868 11.7988 45.6501 11.743C45.6763 11.7217 45.7013 11.6989 45.7251 11.675C45.7993 11.5968 45.8601 11.5069 45.9051 11.409C45.9051 11.4 45.9151 11.394 45.9191 11.385C45.9629 11.2745 45.9862 11.1569 45.9881 11.0381C45.9881 11.025 45.9951 11.0151 45.9951 11.0021V8.00012C45.9968 7.97799 45.9857 7.95999 45.9848 7.93796Z" fill="#5452F6"/>
</svg>
