<svg width="32" height="32" viewBox="0 0 32 32" fill="none" xmlns="http://www.w3.org/2000/svg">
<path d="M19.9998 17.3331C19.2625 17.3331 18.6666 17.9305 18.6666 18.6663V23.9998C18.6666 24.7344 18.0691 25.333 17.3331 25.333H13.3331V5.3332C13.3331 4.19454 12.6078 3.17722 11.5172 2.79856L11.1224 2.66648H17.3331C18.0691 2.66648 18.6666 3.26511 18.6666 3.99996V7.99992C18.6666 8.73576 19.2625 9.33316 19.9998 9.33316C20.7371 9.33316 21.333 8.73576 21.333 7.99992V3.99996C21.333 1.79466 19.5384 0 17.3331 0H2.99997C2.94919 0 2.90671 0.0227049 2.85739 0.0292966C2.79318 0.0239256 2.7319 0 2.66672 0C1.19603 0 0 1.19579 0 2.66648V26.6663C0 27.8049 0.725334 28.8222 1.8159 29.2009L9.83998 31.8757C10.112 31.9597 10.3825 31.9997 10.6666 31.9997C12.1373 31.9997 13.3331 30.8037 13.3331 29.333V27.9997H17.3331C19.5384 27.9997 21.333 26.2051 21.333 23.9998V18.6663C21.333 17.9305 20.7371 17.3331 19.9998 17.3331Z" fill="#FF5A43"/>
<path d="M31.609 12.3912L26.2755 7.05802C25.8944 6.67667 25.321 6.56193 24.8224 6.76847C24.3251 6.97525 23.9997 7.46182 23.9997 8.00063V12.0006H18.6665C17.9304 12.0006 17.333 12.5978 17.333 13.3338C17.333 14.0699 17.9304 14.6671 18.6665 14.6671H23.9997V18.667C23.9997 19.2058 24.3251 19.6924 24.8224 19.8992C25.321 20.1057 25.8944 19.991 26.2755 19.6099L31.609 14.2764C32.1302 13.7552 32.1302 12.9124 31.609 12.3912Z" fill="#FF5A43"/>
</svg>
