<svg width="35" height="33" viewBox="0 0 35 33" fill="none" xmlns="http://www.w3.org/2000/svg">
<g clip-path="url(#clip0)">
<path d="M23.7501 19.1296V14.7988L13.9901 24.0018C14.9916 24.6453 16.2002 25.0222 17.5004 25.0222C20.9466 25.0222 23.7501 22.3789 23.7501 19.1296Z" fill="#5452F6"/>
<path d="M27.5457 15.6064H26.3009C25.9012 15.6064 25.5768 15.9123 25.5768 16.2892V18.6888C25.5768 22.8878 21.9535 26.3043 17.4997 26.3043C15.8146 26.3043 14.2487 25.8144 12.9524 24.9791L11.0534 26.7696C12.5151 27.8225 14.2599 28.537 16.1535 28.7616V30.4617H10.5957C10.196 30.4617 9.87158 30.7676 9.87158 31.1444V32.3174C9.87158 32.6943 10.196 33.0002 10.5957 33.0002H24.4044C24.8041 33.0002 25.1285 32.6943 25.1285 32.3174V31.1444C25.1285 30.7676 24.8041 30.4617 24.4044 30.4617H18.8462V28.7616C24.1303 28.1341 28.2695 23.7095 28.2695 18.6888V16.2892C28.2699 15.912 27.9455 15.6064 27.5457 15.6064Z" fill="#5452F6"/>
<path d="M7.35469 15.4297H8.61554C9.02042 15.4297 9.34902 15.7387 9.34902 16.1194V18.5433C9.34902 22.7849 13.019 26.2361 17.5302 26.2361C19.2371 26.2361 20.8232 25.7413 22.1361 24.8974L24.0597 26.7062C22.5791 27.7697 20.8118 28.4914 18.8938 28.7183V30.4357H24.5232C24.9281 30.4357 25.2567 30.7447 25.2567 31.1254V32.3103C25.2567 32.691 24.9281 33 24.5232 33H10.5365C10.1316 33 9.80304 32.691 9.80304 32.3103V31.1254C9.80304 30.7447 10.1316 30.4357 10.5365 30.4357H16.1663V28.7183C10.8141 28.0845 6.62158 23.615 6.62158 18.5433V16.1194C6.62121 15.7383 6.94981 15.4297 7.35469 15.4297Z" fill="#5452F6"/>
<rect x="11.2567" width="12.4865" height="25.0622" rx="6.24324" fill="#5452F6"/>
</g>
<defs>
<clipPath id="clip0">
<rect width="35" height="33" fill="white"/>
</clipPath>
</defs>
</svg>
