<svg width="32" height="32" viewBox="0 0 32 32" fill="none" xmlns="http://www.w3.org/2000/svg">
<path d="M21.7144 18.5501V14.3506L12.791 23.2747C13.7067 23.8987 14.8117 24.2641 16.0004 24.2641C19.1512 24.2641 21.7144 21.7009 21.7144 18.5501Z" fill="#5452F6"/>
<path d="M25.1847 15.1338H24.0466C23.6812 15.1338 23.3846 15.4304 23.3846 15.7959V18.1227C23.3846 22.1945 20.0719 25.5075 15.9998 25.5075C14.4591 25.5075 13.0274 25.0324 11.8423 24.2224L10.106 25.9587C11.4424 26.9796 13.0377 27.6725 14.769 27.8903V29.5389H9.68759C9.32212 29.5389 9.02551 29.8355 9.02551 30.2009V31.3384C9.02551 31.7038 9.32212 32.0004 9.68759 32.0004H22.3127C22.6781 32.0004 22.9747 31.7038 22.9747 31.3384V30.2009C22.9747 29.8355 22.6781 29.5389 22.3127 29.5389H17.2309V27.8903C22.0621 27.2818 25.8465 22.9913 25.8465 18.1227V15.7959C25.8468 15.4301 25.5502 15.1338 25.1847 15.1338Z" fill="#5452F6"/>
<path d="M28.4599 2.547C27.7495 1.83626 26.5958 1.83626 25.8854 2.547L21.7143 6.71806V5.71436C21.7143 2.56322 19.1511 0 16 0C12.8489 0 10.2856 2.56322 10.2856 5.71436V18.1461L8.77876 19.653C8.67382 19.1588 8.61522 18.6473 8.61522 18.1223V15.7954C8.61522 15.43 8.31862 15.1333 7.95315 15.1333H6.81538C6.44991 15.1333 6.1533 15.43 6.1533 15.7954V18.1223C6.1533 19.3372 6.39364 20.5147 6.82266 21.6091L3.53977 24.8916C2.8287 25.6027 2.8287 26.7557 3.53977 27.4668C3.89497 27.822 4.36107 27.9998 4.82717 27.9998C5.29327 27.9998 5.75904 27.822 6.11457 27.4668L28.4596 5.1218C29.1713 4.41073 29.1713 3.25806 28.4599 2.547Z" fill="#5452F6"/>
</svg>
