<svg width="32" height="28" viewBox="0 0 32 28" fill="none" xmlns="http://www.w3.org/2000/svg">
<path d="M13.5387 2.30664C13.2055 2.30664 12.917 2.42869 12.6733 2.67212L6.26945 9.07608H1.23102C0.897464 9.07608 0.609041 9.19813 0.365479 9.44142C0.121849 9.68499 0 9.97361 0 10.3069V17.6912C0 18.0246 0.121849 18.3131 0.365479 18.5566C0.609244 18.8003 0.897733 18.9222 1.23102 18.9222H6.26918L12.6731 25.3263C12.9167 25.5695 13.2052 25.6917 13.5384 25.6917C13.872 25.6917 14.1604 25.5696 14.4039 25.3263C14.6476 25.0829 14.7694 24.7942 14.7694 24.461V3.53766C14.7694 3.20437 14.6476 2.91568 14.4042 2.67212C14.1604 2.42869 13.8722 2.30664 13.5387 2.30664Z" fill="#5452F6"/>
<path d="M21.3367 16.7209C21.8819 15.8812 22.1541 14.9744 22.1541 14C22.1541 13.0257 21.8819 12.1146 21.3367 11.2683C20.7916 10.4222 20.071 9.82619 19.1732 9.47991C19.0451 9.41599 18.8846 9.38379 18.6923 9.38379C18.3593 9.38379 18.0705 9.50247 17.827 9.73957C17.5838 9.97673 17.4614 10.2685 17.4614 10.6145C17.4614 10.8838 17.5384 11.1114 17.6926 11.2973C17.8464 11.4834 18.0321 11.6437 18.2504 11.7782C18.468 11.9128 18.6861 12.0603 18.9043 12.2205C19.1224 12.3808 19.3082 12.6084 19.4619 12.9032C19.6152 13.1982 19.6927 13.5636 19.6927 13.9996C19.6927 14.4354 19.6157 14.8008 19.4619 15.0959C19.3082 15.391 19.1224 15.6182 18.9043 15.7789C18.6861 15.9391 18.468 16.0866 18.2504 16.2212C18.0321 16.3554 17.8464 16.516 17.6926 16.7016C17.5389 16.8878 17.4614 17.1154 17.4614 17.3846C17.4614 17.7311 17.5837 18.0225 17.827 18.2596C18.0704 18.4967 18.3592 18.6157 18.6923 18.6157C18.8845 18.6157 19.045 18.5835 19.1732 18.5198C20.071 18.1602 20.7918 17.5607 21.3367 16.7209Z" fill="#5452F6"/>
<path d="M25.4426 19.4327C26.5325 17.7726 27.0776 15.9617 27.0776 14C27.0776 12.0383 26.5324 10.2277 25.4426 8.56663C24.353 6.90662 22.91 5.69837 21.1156 4.94182C20.9491 4.87783 20.7823 4.8457 20.616 4.8457C20.2828 4.8457 19.9939 4.96755 19.7502 5.21118C19.5069 5.45474 19.3849 5.74317 19.3849 6.07652C19.3849 6.57657 19.635 6.95478 20.1352 7.21141C20.853 7.58309 21.3401 7.86511 21.5964 8.05735C22.5453 8.74978 23.2855 9.61821 23.8175 10.6631C24.3495 11.7081 24.6156 12.8203 24.6156 13.9998C24.6156 15.1793 24.3496 16.2915 23.8175 17.3364C23.2855 18.3815 22.5449 19.2498 21.5964 19.942C21.34 20.1344 20.853 20.4164 20.1352 20.7882C19.635 21.0448 19.3849 21.423 19.3849 21.923C19.3849 22.2563 19.5069 22.5451 19.7502 22.7883C19.9939 23.0322 20.2885 23.1542 20.6347 23.1542C20.7887 23.1542 20.9491 23.1217 21.1156 23.058C22.91 22.3013 24.353 21.093 25.4426 19.4327Z" fill="#5452F6"/>
<path d="M29.5578 5.8752C27.9297 3.40738 25.7627 1.58982 23.0575 0.423132C22.8911 0.359143 22.7242 0.327148 22.558 0.327148C22.2247 0.327148 21.9359 0.449132 21.6927 0.692493C21.4488 0.935988 21.3268 1.22475 21.3268 1.55803C21.3268 2.01949 21.5769 2.3979 22.0771 2.69272C22.1671 2.74365 22.3107 2.81094 22.5096 2.89453C22.7083 2.97751 22.8523 3.0448 22.9425 3.09613C23.5321 3.41641 24.0579 3.74349 24.5198 4.07684C26.0964 5.24333 27.3274 6.69851 28.2121 8.44218C29.0967 10.1857 29.5388 12.0382 29.5388 13.9999C29.5388 15.962 29.0967 17.8141 28.2121 19.5577C27.3276 21.3015 26.0964 22.7569 24.5198 23.923C24.0579 24.2563 23.5321 24.5832 22.9425 24.9039C22.8523 24.9548 22.7083 25.0219 22.5096 25.1053C22.3107 25.1883 22.1671 25.2555 22.0771 25.3072C21.5769 25.6018 21.3268 25.9803 21.3268 26.4418C21.3268 26.7751 21.4488 27.0637 21.6927 27.3072C21.9358 27.5508 22.2246 27.6727 22.558 27.6727C22.7242 27.6727 22.8911 27.6407 23.0575 27.5763C25.7627 26.41 27.9297 24.5924 29.5578 22.1245C31.1861 19.6566 32 16.9481 32 13.9995C32 11.0509 31.1863 8.34276 29.5578 5.8752Z" fill="#5452F6"/>
</svg>
