<svg width="30" height="34" viewBox="0 0 30 34" fill="none" xmlns="http://www.w3.org/2000/svg">
<path d="M12.6925 2.91602C12.3802 2.91602 12.1097 3.06558 11.8813 3.36388L5.87761 11.2114H1.15408C0.841372 11.2114 0.570976 11.361 0.342636 11.6591C0.114233 11.9576 0 12.3113 0 12.7197V21.7686C0 22.1771 0.114233 22.5307 0.342636 22.8291C0.571166 23.1276 0.841625 23.277 1.15408 23.277H5.87736L11.881 31.1248C12.1094 31.4228 12.3799 31.5725 12.6923 31.5725C13.005 31.5725 13.2754 31.4228 13.5037 31.1248C13.7321 30.8265 13.8463 30.4726 13.8463 30.0644V4.42452C13.8463 4.01611 13.7321 3.66235 13.504 3.36388C13.2754 3.06558 13.0052 2.91602 12.6925 2.91602Z" fill="#5452F6"/>
<path d="M20.0032 20.5799C20.5143 19.5509 20.7695 18.4397 20.7695 17.2457C20.7695 16.0518 20.5143 14.9352 20.0032 13.8982C19.4921 12.8613 18.8166 12.131 17.9749 11.7067C17.8548 11.6283 17.7044 11.5889 17.5241 11.5889C17.2119 11.5889 16.9411 11.7343 16.7128 12.0248C16.4849 12.3155 16.3701 12.673 16.3701 13.097C16.3701 13.427 16.4423 13.7059 16.5868 13.9338C16.731 14.1617 16.9052 14.3582 17.1098 14.523C17.3138 14.6879 17.5183 14.8687 17.7229 15.0651C17.9273 15.2615 18.1015 15.5403 18.2456 15.9016C18.3893 16.2631 18.4619 16.7108 18.4619 17.2451C18.4619 17.7792 18.3898 18.227 18.2456 18.5886C18.1015 18.9502 17.9273 19.2287 17.7229 19.4255C17.5183 19.6219 17.3138 19.8026 17.1098 19.9676C16.9052 20.132 16.731 20.3288 16.5868 20.5562C16.4427 20.7845 16.3701 21.0633 16.3701 21.3932C16.3701 21.8178 16.4848 22.1749 16.7128 22.4654C16.941 22.756 17.2118 22.9019 17.5241 22.9019C17.7043 22.9019 17.8547 22.8623 17.9749 22.7843C18.8166 22.3437 19.4924 21.609 20.0032 20.5799Z" fill="#5452F6"/>
<path d="M23.8525 23.9025C24.8742 21.8682 25.3852 19.6491 25.3852 17.2452C25.3852 14.8413 24.8741 12.6226 23.8525 10.587C22.8309 8.55283 21.4781 7.07222 19.7958 6.14513C19.6398 6.06672 19.4834 6.02734 19.3275 6.02734C19.0151 6.02734 18.7443 6.17666 18.5159 6.47521C18.2877 6.77367 18.1733 7.12711 18.1733 7.5356C18.1733 8.14838 18.4078 8.61185 18.8767 8.92633C19.5497 9.38179 20.0063 9.72738 20.2466 9.96295C21.1363 10.8115 21.8301 11.8757 22.3289 13.1561C22.8277 14.4366 23.0771 15.7996 23.0771 17.2449C23.0771 18.6904 22.8277 20.0532 22.3289 21.3336C21.8302 22.6143 21.1358 23.6784 20.2466 24.5266C20.0062 24.7625 19.5497 25.108 18.8767 25.5636C18.4078 25.878 18.1733 26.3414 18.1733 26.9541C18.1733 27.3626 18.2877 27.7165 18.5159 28.0145C18.7443 28.3134 19.0205 28.4629 19.345 28.4629C19.4894 28.4629 19.6398 28.423 19.7958 28.345C21.4781 27.4178 22.8309 25.9371 23.8525 23.9025Z" fill="#5452F6"/>
<path d="M27.7105 7.28892C26.1841 4.26481 24.1526 2.03754 21.6165 0.607855C21.4604 0.529441 21.304 0.490234 21.1482 0.490234C20.8357 0.490234 20.5649 0.639715 20.3369 0.937934C20.1083 1.23632 19.9939 1.59017 19.9939 1.99858C19.9939 2.56406 20.2284 3.02777 20.6974 3.38905C20.7817 3.45145 20.9163 3.53391 21.1028 3.63635C21.289 3.73804 21.4241 3.82049 21.5086 3.88339C22.0614 4.27587 22.5543 4.67669 22.9874 5.08518C24.4655 6.51461 25.6195 8.29782 26.4488 10.4345C27.2782 12.5711 27.6926 14.8412 27.6926 17.2451C27.6926 19.6494 27.2782 21.919 26.4488 24.0557C25.6197 26.1926 24.4655 27.976 22.9874 29.4051C22.5543 29.8135 22.0614 30.214 21.5086 30.607C21.4241 30.6694 21.289 30.7516 21.1028 30.8538C20.9163 30.9555 20.7817 31.038 20.6974 31.1013C20.2284 31.4623 19.9939 31.9261 19.9939 32.4916C19.9939 32.9001 20.1083 33.2537 20.3369 33.5521C20.5649 33.8506 20.8356 34 21.1482 34C21.304 34 21.4604 33.9607 21.6165 33.8819C24.1526 32.4527 26.1841 30.2253 27.7105 27.2011C29.237 24.1769 30 20.8579 30 17.2446C30 13.6313 29.2372 10.3127 27.7105 7.28892Z" fill="#5452F6"/>
</svg>
