<svg width="38" height="32" viewBox="0 0 38 32" fill="none" xmlns="http://www.w3.org/2000/svg">
<mask id="mask0" mask-type="alpha" maskUnits="userSpaceOnUse" x="0" y="0" width="38" height="32">
<path d="M26.7867 0C32.4407 0 37.0248 4.58546 37.0248 10.24C37.0248 19.5864 18.5119 32 18.5119 32C18.5119 32 0 20.0338 0 10.2399C0 3.1998 4.58413 0 10.237 0C13.6422 0 16.6501 1.67042 18.5119 4.22794C20.374 1.67042 23.3824 0 26.7867 0Z" fill="white"/>
</mask>
<g mask="url(#mask0)">
<path d="M26.7867 0C32.4407 0 37.0248 4.58546 37.0248 10.24C37.0248 19.5864 18.5119 32 18.5119 32C18.5119 32 0 20.0338 0 10.2399C0 3.1998 4.58413 0 10.237 0C13.6422 0 16.6501 1.67042 18.5119 4.22794C20.374 1.67042 23.3824 0 26.7867 0Z" fill="white"/>
<path d="M20.2189 26.9175L20.2189 34.5688C20.2189 35.7641 21.1914 36.7366 22.3867 36.7366C22.9844 36.7366 23.5263 36.4935 23.9188 36.101C24.3113 35.7085 24.5545 35.1665 24.5545 34.5689L24.5545 26.9175L20.2189 26.9175Z" fill="#FF5A43"/>
<path d="M21.2787 6.06205C21.0628 5.93196 20.7936 5.9281 20.5741 6.05213C20.3547 6.17605 20.2189 6.40862 20.219 6.66068L20.2189 25.5195L27.4922 25.5195L27.4922 17.0621C27.4922 14.853 26.9179 12.6687 25.8314 10.7453C24.745 8.82186 23.1706 7.20241 21.2787 6.06205Z" fill="#FF5A43"/>
<path d="M17.1856 8.68993C16.8998 8.68993 16.6855 8.90425 16.6855 9.19001L16.6677 18.8523C16.5605 18.9238 16.3998 18.9774 16.2033 19.0667C16.0426 19.1202 15.8461 19.1738 15.6496 19.1917L15.6496 9.15429C15.6496 8.86853 15.4353 8.65421 15.1495 8.65421C14.8638 8.65421 14.6495 8.86853 14.6495 9.15429L14.6316 19.3167C14.4709 19.3346 14.2923 19.3346 14.1137 19.3346C13.9351 19.3346 13.7565 19.3346 13.5957 19.3167L13.5957 9.17215C13.5957 8.88639 13.3814 8.67207 13.0956 8.67207C12.8099 8.67207 12.5955 8.88639 12.5955 9.17215L12.6134 19.1917C12.1669 19.1024 11.7918 18.9774 11.5954 18.8523L11.5954 9.17215C11.5954 8.88639 11.3811 8.67207 11.0953 8.67207C10.8095 8.67207 10.5952 8.88639 10.5952 9.17215L10.5774 19.1202C10.5774 20.0847 10.9524 20.9598 11.6132 21.6207C11.899 21.9064 12.2205 22.1207 12.5598 22.2815L12.1848 48.3751C12.1848 49.4467 13.0599 50.3576 14.1494 50.3397C14.6673 50.3576 15.1495 50.1254 15.5067 49.7682C15.864 49.411 16.0783 48.9109 16.0961 48.3573L15.3817 22.4244C15.8461 22.2458 16.2926 21.9779 16.6498 21.6207C17.2928 20.9777 17.6857 20.0847 17.6857 19.1202L17.6857 9.19001C17.6857 8.90425 17.4714 8.68993 17.1856 8.68993Z" fill="#FF5A43"/>
</g>
</svg>
